<?xml version="1.0" encoding="UTF-8"?>
<svg version="1.1" viewBox="0 0 2048 1932" width="514" height="485" xmlns="http://www.w3.org/2000/svg">
<path transform="translate(724,174)" d="m0 0h570l40 3 34 5 28 6 28 8 30 10 29 12 29 14 21 11 26 16 16 11 16 12 16 13 11 9 13 12 29 29 8 10 11 12 13 16 13 18 14 21 13 22 13 24 15 33 11 30 8 25 7 28 6 30 4 30 3 38v544l-1 33-3 37-6 36-7 30-7 25-8 24-12 30-12 26-15 28-12 19-8 12-13 19-11 13-7 9-11 11-8 10-9 10-24 24-11 9-13 11-20 15-13 9-15 10-20 12-28 15-28 13-35 13-21 7-29 8-25 5-36 5-49 4h-7l-2-3v-263l1-93v-24l-1-96h-4l-6 39-9 43-10 34-11 32-11 25-14 28-14 24-12 19-11 16-12 16-13 16-7 8-12 13-25 25-8 7-10 9-14 11-13 10-17 12-20 13-22 13-23 12-23 11-28 11-38 13-28 7-33 6-34 4-16 1-35 1-47-2-25-3-29-5-36-9-29-9-32-12-26-12-24-12-27-16-28-19-12-9-14-11-14-12-12-11-7-8-9-9-7-8-12-12-7-8-7-7-11-14-10-13-20-30-10-17-14-26-13-28-10-27-11-33-8-30-7-36-4-33-2-34v-30l3-41 5-35 6-30 8-27 11-33 12-29 16-33 10-18 16-26 11-16 12-16 11-14 9-11 22-24 17-17 8-7 12-11 17-13 19-14 15-10 21-13 21-12 23-12 28-12 19-7 24-8 35-9 28-6 21-3 13-1 4-1 1-4-426 1h-50l-2-3v-20l3-34 5-35 7-33 10-34 10-29 11-26 16-33 12-21 13-21 10-14 8-11 11-14 10-12 12-12 7-8 11-11 1-2h2v-2l5-5 10-11 11-9 10-9 14-11 15-11 21-14 21-13 33-17 21-10 28-11 34-11 32-8 24-5 27-4 25-2zm547 47-2 2-7 45-7 33-8 30-9 26-13 30-13 28-12 22-11 18-12 18-10 14-12 16-10 14-9 11-11 12-24 24-11 9-14 12-19 14-17 10-14 9-20 12-28 15-26 12-34 13-33 11-29 7-36 6-26 4-2 1 1 5 39 6 31 6 29 8 38 13 28 12 18 8 19 10 23 13 15 10 16 11 19 14 17 14 14 12 11 9 12 11 9 9 9 11 10 13 9 12 14 19 10 15 13 21 12 21 14 28 13 31 7 19 10 33 8 34 6 36 3 19 5 1 1-1 7-46 8-37 9-29 11-31 11-26 14-29 9-16 12-20 11-17 10-14 9-12 14-18 9-11 8-10 18-18 14-11 12-11 13-10 12-9 20-14 22-14 21-12 32-16 25-11 34-12 31-9 26-6 34-6 19-3 1-4-4-2-53-9-30-7-41-13-24-9-23-10-28-14-23-13-20-13-10-6-14-9-18-14-15-13-12-11-20-20-13-17-11-13-13-17-13-18-11-17-12-20-13-24-12-25-11-27-8-22-9-32-8-37-7-42-3-5z"/>
</svg>
