<svg xmlns="http://www.w3.org/2000/svg" shape-rendering="geometricPrecision" text-rendering="geometricPrecision" image-rendering="optimizeQuality" fill-rule="evenodd" clip-rule="evenodd" viewBox="0 0 512 509.641"><path d="m205.981 298.765 180.002-178.976h-.169l51.763-51.695c-1.32.924-2.605 1.86-3.89 2.785-54.164 39.281-80.649 58.46-146.922 43.07l.101.09c-45.11-10.61-95.137.744-131.836 37.398-46.306 46.216-56.611 120.167-14.928 181.063l19.675-42.462c-15.278-38.863-8.57-81.392 22.03-111.947 30.6-30.566 75.159-37.432 112.252-22.065 7.025 2.92 8.795 11.67 4.263 17.792zm-22.437 25.786-.034.033L76.783 443.906c10.429-7.565 20.294-16.957 30.149-26.327 27.803-26.428 55.359-52.653 94.302-36.654 52.112 21.422 113.177 8.952 152.898-30.724 41.254-41.243 51.661-101.98 30.758-152.706-4.172-11.23-10.114-21.016-15.639-28.638l-19.584 42.359c16.563 39.44 5.299 84.629-22.313 112.207-37.308 37.298-102.003 44.84-143.81 1.128" fill="#fff"/></svg>