<svg width="270" height="75" viewBox="0 0 270 75" fill="none" xmlns="http://www.w3.org/2000/svg">
<rect x="1.17" y="1.17" width="267.197" height="72.3683" rx="16.1045" fill="#35324A" stroke="white" stroke-width="2.34"/>
<path d="M69.8742 45.7119H67.0777L73.2349 29.2614H76.4545L82.5881 45.7119H79.6976L78.1465 41.6463H71.4018L69.8742 45.7119ZM74.7624 32.1755L72.1538 39.3432H77.3945L74.7624 32.1755ZM92.0872 39.6957V33.6795H94.6253V45.7119H92.3927L92.1107 44.1844C91.3587 45.1009 90.2542 45.8529 88.3976 45.8529C85.836 45.8529 83.6505 44.4899 83.6505 40.3772V33.6795H86.1885V40.0952C86.1885 42.4453 87.1286 43.6438 88.9851 43.6438C90.9122 43.6438 92.0872 42.1868 92.0872 39.6957ZM98.2999 42.4453V35.9121H96.2083V33.6795H98.2999V30.3189H100.861V33.6795H103.799V35.9121H100.861V42.1868C100.861 43.1268 101.19 43.4793 102.154 43.4793H103.94V45.7119H101.59C99.2869 45.7119 98.2999 44.6309 98.2999 42.4453ZM112.111 33.5385C114.79 33.5385 116.976 34.9956 116.976 39.0142V45.7119H114.438V39.2257C114.438 36.9461 113.427 35.7241 111.547 35.7241C109.55 35.7241 108.328 37.2046 108.328 39.6252V45.7119H105.79V29.2614H108.328V35.4186C109.08 34.3846 110.231 33.5385 112.111 33.5385ZM125.115 45.8529C121.448 45.8529 118.981 43.3853 118.981 39.6957C118.981 36.0296 121.448 33.5385 125.115 33.5385C128.781 33.5385 131.248 36.0296 131.248 39.6957C131.248 43.3853 128.781 45.8529 125.115 45.8529ZM125.115 43.6908C127.253 43.6908 128.663 42.0223 128.663 39.6957C128.663 37.3691 127.253 35.7006 125.115 35.7006C122.976 35.7006 121.589 37.3691 121.589 39.6957C121.589 42.0223 122.976 43.6908 125.115 43.6908ZM139.611 33.6795H140.175V36.0531H139.047C136.791 36.0531 136.062 37.8157 136.062 39.6722V45.7119H133.524V33.6795H135.78L136.062 35.4891C136.673 34.4786 137.637 33.6795 139.611 33.6795ZM143.268 31.9875C142.398 31.9875 141.717 31.353 141.717 30.4599C141.717 29.5669 142.398 28.9324 143.268 28.9324C144.137 28.9324 144.819 29.5669 144.819 30.4599C144.819 31.353 144.137 31.9875 143.268 31.9875ZM141.975 45.7119V33.6795H144.513V45.7119H141.975ZM153.582 33.5385C156.237 33.5385 158.423 34.9956 158.423 39.0142V45.7119H155.861V39.2257C155.861 36.9461 154.898 35.7241 152.994 35.7241C150.973 35.7241 149.774 37.2046 149.774 39.6487V45.7119H147.236V33.6795H149.445L149.727 35.2541C150.479 34.3141 151.631 33.5385 153.582 33.5385ZM170.155 35.5596L170.437 33.6795H172.646V45.2184C172.646 48.485 170.813 50.5531 166.489 50.5531C163.292 50.5531 161.06 49.0725 160.825 46.3699H163.41C163.715 47.7095 164.891 48.485 166.677 48.485C168.886 48.485 170.131 47.4275 170.131 45.1244V43.7849C169.332 44.9834 168.087 45.7589 166.207 45.7589C162.94 45.7589 160.519 43.4793 160.519 39.6487C160.519 35.9591 162.94 33.5385 166.207 33.5385C168.087 33.5385 169.379 34.3611 170.155 35.5596ZM166.63 43.6203C168.745 43.6203 170.131 41.9988 170.131 39.6957C170.131 37.3221 168.745 35.6771 166.63 35.6771C164.515 35.6771 163.128 37.3221 163.128 39.6487C163.128 41.9988 164.515 43.6203 166.63 43.6203ZM183.348 45.7119H180.551L186.709 29.2614H189.928L196.062 45.7119H193.171L191.62 41.6463H184.876L183.348 45.7119ZM188.236 32.1755L185.628 39.3432H190.868L188.236 32.1755ZM206.363 35.5596L206.645 33.6795H208.854V45.2184C208.854 48.485 207.021 50.5531 202.697 50.5531C199.501 50.5531 197.268 49.0725 197.033 46.3699H199.619C199.924 47.7095 201.099 48.485 202.885 48.485C205.094 48.485 206.34 47.4275 206.34 45.1244V43.7849C205.541 44.9834 204.295 45.7589 202.415 45.7589C199.149 45.7589 196.728 43.4793 196.728 39.6487C196.728 35.9591 199.149 33.5385 202.415 33.5385C204.295 33.5385 205.588 34.3611 206.363 35.5596ZM202.838 43.6203C204.953 43.6203 206.34 41.9988 206.34 39.6957C206.34 37.3221 204.953 35.6771 202.838 35.6771C200.723 35.6771 199.337 37.3221 199.337 39.6487C199.337 41.9988 200.723 43.6203 202.838 43.6203ZM217.28 45.8529C213.497 45.8529 211.123 43.4088 211.123 39.7192C211.123 36.0061 213.497 33.5385 217.045 33.5385C220.523 33.5385 222.85 35.7476 222.92 39.2727C222.92 39.5782 222.897 39.9072 222.85 40.2362H213.779V40.4007C213.849 42.4453 215.142 43.7849 217.139 43.7849C218.69 43.7849 219.818 43.0093 220.171 41.6698H222.709C222.286 44.0434 220.265 45.8529 217.28 45.8529ZM213.873 38.3797H220.288C220.077 36.5936 218.831 35.5831 217.069 35.5831C215.447 35.5831 214.061 36.6641 213.873 38.3797ZM231.553 33.5385C234.208 33.5385 236.394 34.9956 236.394 39.0142V45.7119H233.832V39.2257C233.832 36.9461 232.869 35.7241 230.965 35.7241C228.944 35.7241 227.745 37.2046 227.745 39.6487V45.7119H225.207V33.6795H227.416L227.698 35.2541C228.45 34.3141 229.602 33.5385 231.553 33.5385ZM239.806 42.4453V35.9121H237.715V33.6795H239.806V30.3189H242.368V33.6795H245.306V35.9121H242.368V42.1868C242.368 43.1268 242.697 43.4793 243.661 43.4793H245.447V45.7119H243.097C240.794 45.7119 239.806 44.6309 239.806 42.4453Z" fill="white"/>
<g clip-path="url(#clip0_8806_247)">
<path d="M47.5697 30.3281V26.0892C47.5697 24.836 46.8209 23.8099 45.9056 23.8099H23.5903C22.6751 23.8099 21.9263 24.8276 21.9263 26.0892V51.2451C21.9263 52.4982 22.6751 53.5243 23.5903 53.5243H45.9056C46.8209 53.5243 47.5697 52.5067 47.5697 51.2451V45.2736" stroke="white" stroke-width="2.3375" stroke-linecap="round" stroke-linejoin="round"/>
<path d="M42.13 32.1388H26.7373" stroke="white" stroke-width="2.3375" stroke-linecap="round" stroke-linejoin="round"/>
<path d="M32.9776 37.0798H26.7373" stroke="white" stroke-width="2.3375" stroke-linecap="round" stroke-linejoin="round"/>
<path d="M52.0218 36.4085L41.1304 47.9141L37.1865 48.8729L37.952 44.8443L48.8434 33.3387C49.6837 32.4556 51.0733 32.4219 51.9552 33.2714C52.8289 34.1209 52.8621 35.5254 52.0218 36.4169V36.4085Z" stroke="white" stroke-width="2.3375" stroke-linecap="round" stroke-linejoin="round"/>
<path d="M60.2551 27.5188C59.6986 25.8415 59.1369 25.2825 57.451 24.7278C57.3125 24.6826 57.3125 24.4876 57.451 24.4416C59.1362 23.8877 59.6978 23.3286 60.2551 21.6506C60.3006 21.5126 60.4965 21.5126 60.5427 21.6506C61.0992 23.3279 61.6609 23.8869 63.3468 24.4416C63.4853 24.4868 63.4853 24.6818 63.3468 24.7278C61.6616 25.2817 61.0999 25.8408 60.5427 27.5188C60.4972 27.6567 60.3013 27.6567 60.2551 27.5188Z" fill="#F55800"/>
<path d="M53.7561 24.7964C52.5653 21.2009 51.3648 20.0037 47.7606 18.8158C47.4642 18.718 47.4642 18.3001 47.7606 18.2023C51.365 17.0145 52.5652 15.817 53.7561 12.2217C53.8541 11.9261 54.2731 11.9261 54.3711 12.2217C55.5619 15.8172 56.7624 17.0144 60.3666 18.2023C60.6629 18.3001 60.6629 18.7181 60.3666 18.8158C56.7622 20.0036 55.5619 21.2011 54.3711 24.7964C54.2731 25.092 53.8541 25.092 53.7561 24.7964Z" fill="#F55800"/>
</g>
<defs>
<clipPath id="clip0_8806_247">
<rect width="43.01" height="43.01" fill="white" transform="translate(20.4409 12)"/>
</clipPath>
</defs>
</svg>
