<svg width="43" height="44" viewBox="0 0 43 44" fill="none" xmlns="http://www.w3.org/2000/svg">
<g clip-path="url(#clip0_8803_8032)">
<path d="M27.1288 18.3281V14.0892C27.1288 12.836 26.38 11.8099 25.4647 11.8099H3.14943C2.23419 11.8099 1.48535 12.8276 1.48535 14.0892V39.2451C1.48535 40.4982 2.23419 41.5243 3.14943 41.5243H25.4647C26.38 41.5243 27.1288 40.5067 27.1288 39.2451V33.2736" stroke="#25223B" stroke-width="2.3375" stroke-linecap="round" stroke-linejoin="round"/>
<path d="M21.6891 20.1389H6.29639" stroke="#25223B" stroke-width="2.3375" stroke-linecap="round" stroke-linejoin="round"/>
<path d="M12.5367 25.0798H6.29639" stroke="#25223B" stroke-width="2.3375" stroke-linecap="round" stroke-linejoin="round"/>
<path d="M31.5809 24.4085L20.6895 35.9141L16.7456 36.8729L17.5111 32.8443L28.4025 21.3387C29.2428 20.4556 30.6323 20.4219 31.5143 21.2714C32.3879 22.1209 32.4212 23.5254 31.5809 24.4169V24.4085Z" stroke="#25223B" stroke-width="2.3375" stroke-linecap="round" stroke-linejoin="round"/>
<path d="M39.8142 15.5188C39.2577 13.8415 38.696 13.2825 37.0101 12.7278C36.8715 12.6826 36.8715 12.4876 37.0101 12.4416C38.6952 11.8877 39.2569 11.3286 39.8142 9.65056C39.8596 9.51264 40.0556 9.51264 40.1018 9.65056C40.6583 11.3279 41.22 11.8869 42.9058 12.4416C43.0444 12.4868 43.0444 12.6818 42.9058 12.7278C41.2207 13.2817 40.659 13.8408 40.1018 15.5188C40.0563 15.6567 39.8604 15.6567 39.8142 15.5188Z" fill="#F55800"/>
<path d="M33.3152 12.7964C32.1244 9.20093 30.9239 8.00368 27.3196 6.81578C27.0233 6.71801 27.0233 6.30006 27.3196 6.20233C30.9241 5.01448 32.1243 3.81696 33.3152 0.221681C33.4132 -0.0738939 33.8322 -0.0738939 33.9302 0.221681C35.121 3.81716 36.3215 5.01444 39.9257 6.20233C40.222 6.3001 40.222 6.71805 39.9257 6.81578C36.3213 8.00364 35.121 9.20114 33.9302 12.7964C33.8322 13.092 33.4131 13.092 33.3152 12.7964Z" fill="#F55800"/>
</g>
<defs>
<clipPath id="clip0_8803_8032">
<rect width="43.01" height="43.01" fill="white"/>
</clipPath>
</defs>
</svg>
