<svg width="275" height="75" viewBox="0 0 275 75" fill="none" xmlns="http://www.w3.org/2000/svg">
<rect x="1.17" y="1.17" width="271.803" height="72.3683" rx="16.1045" fill="white" stroke="#25223B" stroke-width="2.34"/>
<g clip-path="url(#clip0_8806_456)">
<path d="M34.7189 38.0582H23.8429L18.5649 33.3943L23.8429 28.7305H34.7189" stroke="#25223B" stroke-width="2.3375" stroke-linecap="round" stroke-linejoin="round"/>
<path d="M35.8626 32.9963L46.7386 32.9964L52.0166 37.6602L46.7386 42.3241L35.8626 42.3241" stroke="#25223B" stroke-width="2.3375" stroke-linecap="round" stroke-linejoin="round"/>
<path d="M35.127 24.1323V56.3898" stroke="#25223B" stroke-width="2.3375" stroke-linecap="round" stroke-linejoin="round"/>
<path d="M56.9773 30.1006C56.4208 28.4233 55.8591 27.8642 54.1732 27.3096C54.0346 27.2644 54.0346 27.0693 54.1732 27.0234C55.8583 26.4695 56.42 25.9104 56.9773 24.2323C57.0227 24.0944 57.2186 24.0944 57.2648 24.2323C57.8213 25.9097 58.3831 26.4687 60.0689 27.0234C60.2075 27.0686 60.2075 27.2636 60.0689 27.3096C58.3838 27.8635 57.8221 28.4226 57.2648 30.1006C57.2194 30.2385 57.0235 30.2385 56.9773 30.1006Z" fill="#F55800"/>
<path d="M50.4778 27.3782C49.287 23.7827 48.0865 22.5855 44.4822 21.3976C44.1859 21.2998 44.1859 20.8818 44.4822 20.7841C48.0867 19.5963 49.2869 18.3987 50.4778 14.8035C50.5758 14.5079 50.9948 14.5079 51.0927 14.8035C52.2836 18.399 53.4841 19.5962 57.0883 20.7841C57.3846 20.8819 57.3846 21.2998 57.0883 21.3976C53.4839 22.5854 52.2836 23.7829 51.0927 27.3782C50.9948 27.6738 50.5757 27.6738 50.4778 27.3782Z" fill="#F55800"/>
</g>
<path d="M75.5379 46.2797C70.9318 46.2797 67.7592 42.9191 67.7592 37.9134C67.7592 32.9078 70.8613 29.5471 75.7494 29.5471C79.5566 29.5471 82.3296 31.8032 82.8232 35.2813H80.0266C79.5331 33.1898 77.9585 31.9207 75.6789 31.9207C72.5533 31.9207 70.5323 34.3883 70.5323 37.9134C70.5323 41.4385 72.5063 43.9061 75.6554 43.9061C78.1935 43.9061 80.2381 42.4726 80.3791 39.817V39.4175H75.8199V37.1379H82.9642V46.1387H80.8726L80.6376 43.9296C79.8386 45.1046 78.1465 46.2797 75.5379 46.2797ZM94.1986 40.1225V34.1063H96.7367V46.1387H94.5041L94.2221 44.6111C93.4701 45.5277 92.3656 46.2797 90.509 46.2797C87.9474 46.2797 85.7619 44.9166 85.7619 40.804V34.1063H88.2999V40.522C88.2999 42.8721 89.24 44.0706 91.0965 44.0706C93.0236 44.0706 94.1986 42.6136 94.1986 40.1225ZM100.765 32.4142C99.8959 32.4142 99.2144 31.7797 99.2144 30.8867C99.2144 29.9937 99.8959 29.3591 100.765 29.3591C101.635 29.3591 102.316 29.9937 102.316 30.8867C102.316 31.7797 101.635 32.4142 100.765 32.4142ZM99.4729 46.1387V34.1063H102.011V46.1387H99.4729ZM113.876 35.7748V29.6881H116.414V46.1387H114.205L113.899 44.3291C113.124 45.3866 111.878 46.2797 109.975 46.2797C106.708 46.2797 104.287 43.9766 104.287 40.1225C104.287 36.4094 106.708 33.9653 109.975 33.9653C111.808 33.9653 113.1 34.7173 113.876 35.7748ZM110.398 44.1411C112.513 44.1411 113.899 42.4961 113.899 40.1695C113.899 37.7724 112.513 36.1274 110.398 36.1274C108.283 36.1274 106.896 37.7724 106.896 40.1225C106.896 42.4961 108.283 44.1411 110.398 44.1411ZM130.127 43.9296H130.644V46.1387H129.305C127.66 46.1387 127.096 45.4101 127.096 44.2116C126.297 45.4336 125.075 46.2797 123.124 46.2797C120.492 46.2797 118.659 44.9871 118.659 42.7546C118.659 40.287 120.445 38.9004 123.806 38.9004H126.837V38.1719C126.837 36.8324 125.874 36.0098 124.205 36.0098C122.701 36.0098 121.691 36.7149 121.503 37.7724H119.012C119.27 35.4223 121.291 33.9653 124.323 33.9653C127.519 33.9653 129.352 35.4928 129.352 38.3364V43.1541C129.352 43.7651 129.61 43.9296 130.127 43.9296ZM126.837 41.2035V40.7805H123.688C122.114 40.7805 121.244 41.368 121.244 42.5901C121.244 43.6006 122.09 44.3056 123.477 44.3056C125.592 44.3056 126.814 43.0601 126.837 41.2035ZM138.607 33.9653C141.263 33.9653 143.448 35.4223 143.448 39.441V46.1387H140.887V39.6525C140.887 37.3729 139.923 36.1509 138.02 36.1509C135.999 36.1509 134.8 37.6314 134.8 40.0755V46.1387H132.262V34.1063H134.471L134.753 35.6808C135.505 34.7408 136.657 33.9653 138.607 33.9653ZM151.422 46.2797C147.78 46.2797 145.453 43.9061 145.453 40.146C145.453 36.4329 147.85 33.9653 151.493 33.9653C154.595 33.9653 156.522 35.6808 157.016 38.4069H154.36C154.031 36.9969 153.02 36.1274 151.446 36.1274C149.401 36.1274 148.062 37.7724 148.062 40.146C148.062 42.4961 149.401 44.1176 151.446 44.1176C152.997 44.1176 154.031 43.2246 154.336 41.838H157.016C156.546 44.5641 154.501 46.2797 151.422 46.2797ZM164.904 46.2797C161.12 46.2797 158.747 43.8356 158.747 40.146C158.747 36.4329 161.12 33.9653 164.669 33.9653C168.147 33.9653 170.474 36.1744 170.544 39.6995C170.544 40.005 170.521 40.334 170.474 40.663H161.402V40.8275C161.473 42.8721 162.765 44.2116 164.763 44.2116C166.314 44.2116 167.442 43.4361 167.795 42.0965H170.333C169.91 44.4701 167.889 46.2797 164.904 46.2797ZM161.496 38.8064H167.912C167.701 37.0204 166.455 36.0098 164.692 36.0098C163.071 36.0098 161.684 37.0909 161.496 38.8064ZM180.818 46.1387H178.021L184.179 29.6881H187.398L193.532 46.1387H190.641L189.09 42.073H182.346L180.818 46.1387ZM185.706 32.6022L183.098 39.77H188.338L185.706 32.6022ZM203.833 35.9863L204.115 34.1063H206.324V45.6452C206.324 48.9118 204.491 50.9798 200.167 50.9798C196.971 50.9798 194.738 49.4993 194.503 46.7967H197.089C197.394 48.1362 198.569 48.9118 200.355 48.9118C202.564 48.9118 203.81 47.8542 203.81 45.5512V44.2116C203.011 45.4101 201.765 46.1857 199.885 46.1857C196.619 46.1857 194.198 43.9061 194.198 40.0755C194.198 36.3859 196.619 33.9653 199.885 33.9653C201.765 33.9653 203.058 34.7878 203.833 35.9863ZM200.308 44.0471C202.423 44.0471 203.81 42.4256 203.81 40.1225C203.81 37.7489 202.423 36.1039 200.308 36.1039C198.193 36.1039 196.807 37.7489 196.807 40.0755C196.807 42.4256 198.193 44.0471 200.308 44.0471ZM214.75 46.2797C210.967 46.2797 208.593 43.8356 208.593 40.146C208.593 36.4329 210.967 33.9653 214.515 33.9653C217.993 33.9653 220.32 36.1744 220.39 39.6995C220.39 40.005 220.367 40.334 220.32 40.663H211.249V40.8275C211.319 42.8721 212.612 44.2116 214.609 44.2116C216.16 44.2116 217.288 43.4361 217.641 42.0965H220.179C219.756 44.4701 217.735 46.2797 214.75 46.2797ZM211.343 38.8064H217.758C217.547 37.0204 216.301 36.0098 214.539 36.0098C212.917 36.0098 211.531 37.0909 211.343 38.8064ZM229.023 33.9653C231.678 33.9653 233.864 35.4223 233.864 39.441V46.1387H231.302V39.6525C231.302 37.3729 230.339 36.1509 228.435 36.1509C226.414 36.1509 225.215 37.6314 225.215 40.0755V46.1387H222.677V34.1063H224.886L225.168 35.6808C225.92 34.7408 227.072 33.9653 229.023 33.9653ZM237.276 42.8721V36.3389H235.185V34.1063H237.276V30.7457H239.838V34.1063H242.776V36.3389H239.838V42.6136C239.838 43.5536 240.167 43.9061 241.131 43.9061H242.917V46.1387H240.567C238.264 46.1387 237.276 45.0576 237.276 42.8721Z" fill="#25223B"/>
<defs>
<clipPath id="clip0_8806_456">
<rect width="43.01" height="43.01" fill="white" transform="translate(17.1626 14.5818)"/>
</clipPath>
</defs>
</svg>
